<?xml version="1.0" encoding="utf-8"?>
<svg xmlns="http://www.w3.org/2000/svg" width="1024" height="1024" viewBox="373 115 1300 1300"><path fill="#494948" d="M460.241 347.977C525.701 328.481 567.719 322.112 635.129 349.686C676.359 366.55 712.341 397.411 738.443 433.42C758.457 461.031 777.317 505.479 792.691 537.522L868.053 694.125C902.954 766.714 939.549 838.272 974.139 910.913C989.314 942.78 1008.19 981.248 1020.96 1014C1040.27 1074.03 1083.41 1140.17 1140.57 1169.48C1147.78 1173.25 1155.2 1176.6 1162.81 1179.5C1151.19 1189.98 1138.32 1199 1124.49 1206.33C1006.37 1267.93 877.471 1202.6 821.897 1089.54C810.835 1067.04 800.829 1043.74 790.065 1021.02L725.237 886.917L592.743 617.81C549.075 528.428 505.837 436.229 460.241 347.977Z"/><path fill="#F8EA1B" d="M1020.96 1014L1183.76 682.535L1248.59 550.755C1270.99 505.324 1291.8 457.884 1323.93 418.239C1351.5 384.215 1392.39 354.314 1433.85 339.822C1480.4 323.551 1542.57 327.617 1586.45 350.669L1328.08 884.72L1253.35 1038.79C1232.85 1080.72 1201.68 1151.81 1162.81 1179.5C1155.2 1176.6 1147.78 1173.25 1140.57 1169.48C1083.41 1140.17 1040.27 1074.03 1020.96 1014Z"/><path fill="#0B36FB" d="M1014.31 530.008C1075.31 525.391 1128.53 571.038 1133.26 632.031C1137.99 693.024 1092.45 746.332 1031.46 751.177C970.315 756.035 916.835 710.342 912.092 649.186C907.348 588.031 953.142 534.637 1014.31 530.008Z"/></svg>
