<?xml version="1.0" encoding="utf-8"?>
<svg xmlns="http://www.w3.org/2000/svg" width="2048" height="2048" viewBox="0 0 2048 2048"><path fill="#494948" d="M460.241 347.977C525.701 328.481 567.719 322.112 635.129 349.686C676.359 366.55 712.341 397.411 738.443 433.42C758.457 461.031 777.317 505.479 792.691 537.522L868.053 694.125C902.954 766.714 939.549 838.272 974.139 910.913C989.314 942.78 1008.19 981.248 1020.96 1014C1040.27 1074.03 1083.41 1140.17 1140.57 1169.48C1147.78 1173.25 1155.2 1176.6 1162.81 1179.5C1151.19 1189.98 1138.32 1199 1124.49 1206.33C1006.37 1267.93 877.471 1202.6 821.897 1089.54C810.835 1067.04 800.829 1043.74 790.065 1021.02L725.237 886.917L592.743 617.81C549.075 528.428 505.837 436.229 460.241 347.977Z"/><path fill="#F8EA1B" d="M1020.96 1014L1183.76 682.535L1248.59 550.755C1270.99 505.324 1291.8 457.884 1323.93 418.239C1351.5 384.215 1392.39 354.314 1433.85 339.822C1480.4 323.551 1542.57 327.617 1586.45 350.669L1328.08 884.72L1253.35 1038.79C1232.85 1080.72 1201.68 1151.81 1162.81 1179.5C1155.2 1176.6 1147.78 1173.25 1140.57 1169.48C1083.41 1140.17 1040.27 1074.03 1020.96 1014Z"/><path fill="#494948" fill-rule="evenodd" d="M1048.33 1469.39C1116.62 1468.03 1173.15 1522.13 1174.8 1590.41C1176.45 1658.69 1122.6 1715.46 1054.33 1717.41C985.634 1719.37 928.438 1665.11 926.778 1596.41C925.117 1527.71 979.624 1470.75 1048.33 1469.39ZM1043.1 1536.08C1074.55 1531.78 1103.52 1553.85 1107.72 1585.31C1111.92 1616.78 1089.77 1645.67 1058.29 1649.78C1026.95 1653.87 998.207 1631.83 994.022 1600.5C989.838 1569.17 1011.79 1540.36 1043.1 1536.08Z"/><path fill="#494948" d="M913.086 1383.27C917.359 1383.34 922.042 1383.86 926.053 1385.37C935.133 1388.76 942.482 1395.63 946.46 1404.47C950.487 1413.64 950.728 1424.03 947.131 1433.37C938.283 1457.05 926.495 1483.02 916.353 1506.25L876.582 1598.19L850.001 1660.22C845.303 1671 839.835 1685.57 833.404 1695.16C820.172 1714.88 793.655 1721.47 772.45 1712.56C763.148 1708.71 755.247 1702.1 749.802 1693.63C741.922 1681.51 725.637 1638.83 719.403 1623.72L663.791 1490.69C654.978 1469.72 633.815 1430.53 639.382 1410.45C642.058 1400.97 648.416 1392.95 657.039 1388.19C685.954 1372.49 708.506 1395.83 714.82 1421.69C716.428 1428.28 721.491 1439.3 724.122 1446.08C738.312 1482.99 752.301 1519.97 766.088 1557.03C773.745 1577.68 783.953 1608.35 793.781 1626.98C801.135 1610.24 810.341 1583.63 817.109 1566.02L858.201 1461.28C865.686 1442.13 873.139 1420.97 882.456 1402.59C888.276 1391.11 900.632 1385.13 913.086 1383.27Z"/><path fill="#0B36FB" d="M1014.31 530.008C1075.31 525.391 1128.53 571.038 1133.26 632.031C1137.99 693.024 1092.45 746.332 1031.46 751.177C970.315 756.035 916.835 710.342 912.092 649.186C907.348 588.031 953.142 534.637 1014.31 530.008Z"/><path fill="#494948" d="M1292.92 1541.21C1306.63 1521.21 1327.12 1495.61 1343.5 1478.11C1360.82 1459.63 1394.32 1469.58 1397.19 1497.23C1397.86 1503.92 1396.58 1510.65 1393.5 1516.62C1389.46 1524.43 1378.18 1537.34 1372.1 1544.71C1359.84 1559.32 1347.71 1574.05 1335.71 1588.88C1348.18 1606.71 1365.34 1625.13 1379.9 1642.81C1395.56 1661.81 1414.34 1681.18 1393.67 1706.68C1386.99 1714.92 1378.06 1716.77 1367.73 1717.32C1341.23 1712.21 1310.73 1664.92 1293.52 1643.02C1279.95 1660.06 1266.93 1677.98 1253.66 1695.32C1241.76 1710.89 1221.78 1728.14 1202.12 1713.17C1194.25 1707.22 1189.16 1698.3 1188.06 1688.5C1185.73 1668.13 1205.19 1649.65 1217.44 1634.79C1229.47 1620.46 1241.22 1605.9 1252.68 1591.12C1239.06 1573.08 1192.41 1525.68 1188.42 1509.02C1186.49 1500.86 1187.98 1492.26 1192.53 1485.21C1198.31 1476.14 1206.55 1471.53 1216.79 1469.28C1241.85 1467.55 1253.51 1489.13 1267.06 1506.35C1275.95 1517.65 1284.5 1529.57 1292.92 1541.21Z"/></svg>
